<?xml version="1.0" encoding="UTF-8"?>
<!DOCTYPE svg PUBLIC "-//W3C//DTD SVG 1.1//EN" "http://www.w3.org/Graphics/SVG/1.1/DTD/svg11.dtd">
<!-- Creator: CorelDRAW 2020 (64 Bit) -->
<svg xmlns="http://www.w3.org/2000/svg" xml:space="preserve" width="209.947mm" height="209.947mm" version="1.1" style="shape-rendering:geometricPrecision; text-rendering:geometricPrecision; image-rendering:optimizeQuality; fill-rule:evenodd; clip-rule:evenodd"
viewBox="0 0 20994.7 20994.7"
 xmlns:xlink="http://www.w3.org/1999/xlink"
 xmlns:xodm="http://www.corel.com/coreldraw/odm/2003">
 <defs>
  <style type="text/css">
   <![CDATA[
    .fil0 {fill:black}
    .fil2 {fill:#003611}
    .fil11 {fill:#0B8329}
    .fil10 {fill:#0C8128}
    .fil12 {fill:#11541A}
    .fil7 {fill:#11551A}
    .fil9 {fill:#136420}
    .fil8 {fill:#136821}
    .fil14 {fill:#149B0C}
    .fil3 {fill:#19B039}
    .fil6 {fill:#1DD647}
    .fil1 {fill:#24D848}
    .fil13 {fill:#25D046}
    .fil4 {fill:#26D949}
    .fil5 {fill:#53D35E}
   ]]>
  </style>
 </defs>
 <g id="Camada_x0020_1">
  <metadata id="CorelCorpID_0Corel-Layer"/>
  <g id="_2337909038176">
   <ellipse class="fil0" cx="10490.97" cy="10491.95" rx="10372.31" ry="10372.28"/>
   <g>
    <path class="fil0" d="M8822.03 5587.73l-2.47 29.99c-27.51,218.64 -31.29,420.62 28.6,617.28 65.9,216.38 164.22,320.95 237.31,490.78l7.75 34.83c71.38,44.58 103.93,108.14 133.12,186.9 37.39,19.19 69.75,72.76 102.01,125.45 71.59,65.69 224.34,310.35 287.32,405.47 47.59,71.86 95.43,141.54 128.79,235.47 134.33,378.3 -259,282.39 1423.18,281.81 31.61,-407.03 270.28,-644.44 448.63,-900.82 35.81,-51.41 65.46,-106.03 104.81,-123.15 30.5,-81.54 15.9,-53.32 67.78,-127.19 38.95,-55.44 37.05,-55.67 81.99,-92.97l-3.23 -14.87c266.65,-489.74 446.35,-835.93 169.32,-1483.71 -408.75,-955.77 -1554.95,-1321.13 -2459.38,-764.39 -464.56,285.98 -605.1,639.23 -755.53,1099.12z"/>
    <path class="fil1" d="M10834.34 13986.37c-31.11,-126.69 -21.28,-817.79 -9.64,-978.84 348.42,18.82 394.74,151.24 383.75,504.35 -8.21,263.72 -83.02,518.98 -374.11,474.49zm-553.64 -1522.81c-88.65,205.75 -37,1453.71 -40.09,1799.77 -1.78,198.5 -19.99,263.88 195.25,267.66 463.1,8.14 848.81,43.83 1140.95,-243.45 292.79,-287.92 581.01,-1606.72 -411.11,-1819.25 -165.58,-35.46 -740.32,-41.17 -885,-4.73z"/>
    <path class="fil1" d="M14787.1 13016.74c239.47,-26.87 344.86,64.98 375.52,277.8 71.1,493.48 -154.69,763.36 -333.24,694.88 -51.2,-19.63 -44.89,-33.58 -46.95,-111.86 -1.38,-52 2.45,-117.55 2.68,-171.75 0.99,-227.7 -6.2,-462.44 1.99,-689.07zm-582.22 -376.85l0 1719.78c0,235.13 212.89,169.8 665.59,169.8 728.55,0 936.07,-465.77 936.07,-1138.69 0,-1027.55 -785.96,-944.91 -1420.51,-944.91 -134.96,0 -181.15,53.38 -181.15,194.02z"/>
    <path class="fil1" d="M7452.56 12817.04c-63.09,-320.79 22.8,-448.87 -749.46,-345.1 67.76,415.72 250.83,963.51 359.53,1388.13 45.32,177.07 123.95,607.93 225.79,644.89 160.54,58.27 629.52,16.93 786.59,-22.7l535.44 -2013.31c-821.3,-138.35 -730.93,97.15 -777.58,350.8 -51.33,279.19 -107.73,718.19 -184.55,956.3 -61.77,-139.28 -156.12,-757.42 -195.76,-959.01z"/>
    <path class="fil1" d="M2629.63 13081.54l129.86 604.68 -301.7 0.1 171.84 -604.78zm-899.86 1422.25c124.53,16.22 393.8,64.17 510.41,-8.2 91.19,-56.59 112.23,-291.49 138.77,-424.85l474.26 2.9c28.51,131.96 51.57,390.09 165.46,437.85 125.89,52.77 438,15.56 565.92,-8.95 -28.5,-262.01 -184.39,-750.16 -255.01,-1027.79l-197.62 -772.11c-10.59,-43.59 -20.4,-98.19 -32.07,-135.99l-53.43 -100.72c-20.17,-13.6 -733.76,-71.97 -791.91,28.08 -2.62,4.51 -7.11,11.03 -9.77,16.2l-26.07 73.88c-104.78,383.03 -474.85,1760.39 -488.94,1919.7z"/>
    <path class="fil1" d="M12800.55 13687.23c28.06,-151.06 109.24,-483.45 168.62,-602.94l128.45 600.56 -297.07 2.38zm-731.62 809.53c606.8,141.82 584.72,-67.6 647.83,-427.5l474.53 8.33 83.37 328.5c73.07,205.53 461.12,140.35 648.21,94.76l-483.19 -1930.05c-15.59,-49.79 -0.07,-11.51 -20.85,-54.69 -71.21,-148.05 -801.78,-54.78 -801.81,-54.76 -54.68,30.83 -142.11,444.93 -158.2,504.69 -46.9,174.22 -88.85,343.55 -134.51,517.66 -67.35,256.86 -235.09,780.01 -255.38,1013.06z"/>
    <path class="fil1" d="M18828.98 13038.2c94.8,-325.86 343.12,-522.73 -190.7,-605.29 -396.26,-61.28 -620,9.38 -824.78,219.05 -195.31,199.94 -185,613.03 -23.1,822.43 243.64,315.14 589.35,221.02 538.99,493.29 -234.22,105.7 -412.55,-98.96 -583.69,-162.01 -566.08,759.77 765.06,955.07 1099.91,556.98 160.32,-190.58 265.19,-636.65 67.48,-872.58 -277.14,-330.68 -636.57,-256.07 -580.24,-511.75 227.32,-83.76 302.78,21.56 496.13,59.88z"/>
    <path class="fil1" d="M9421.77 8593.87c87.63,84.72 255.42,279.2 362.48,341.26 91.52,-130.45 657.09,-637.04 653.66,-683.29 -21.98,-44.65 -49.03,-64.56 -87.08,-101.47 -66.4,-64.41 -82.72,-72.85 -118.74,-154.16 130.45,77.83 150.45,143.47 254.14,212.08 101.17,-72.89 124.39,-142.1 252.13,-211.52 -63.59,141.84 -128.92,132.31 -215.94,258.87 106.98,139.39 557.24,513.62 596.03,624.81 34.34,14.28 25.75,11.79 49.98,24.3l293.65 -230.37c58.69,-57.11 22.4,-48.42 109.16,-58.41l-38.63 -35.48c320.92,-195.06 -98.63,-324.83 -98.65,-324.85 26,-805.09 459.78,-843.35 919.52,-1840.49 -61.86,53.29 -341.37,330.74 -377.61,387.14 65.89,66.27 59.04,34.86 90.72,134.82 -88.03,-53.76 -54.2,-63.29 -127.2,-92.01 -86.03,39.48 -216.36,231.51 -280.38,255.92l-42.74 -6.13c-178.35,256.38 -417.02,493.79 -448.63,900.82 -1682.18,0.58 -1288.85,96.49 -1423.18,-281.81 -33.36,-93.93 -81.2,-163.61 -128.79,-235.47 -62.98,-95.12 -215.73,-339.78 -287.32,-405.47l-327.33 -260.99c-99.76,-109.56 -261.43,-299.04 -388.96,-392.93 140.1,350.02 326.26,579.5 512.99,848.13 239.54,344.63 392.34,432.64 395.43,988.47 -118.49,76.46 -323.19,63.13 -98.71,338.23z"/>
    <path class="fil1" d="M17291.17 14031.43l-572.17 -19.39c-15.57,-66.05 -15.65,-93.06 -15.83,-161.69 -0.43,-160.57 13.51,-129.06 40.28,-142.73l379.66 -4.1c55.3,-187.75 92.02,-412.59 -95.97,-434.84l-307.93 -7.6 0 -278.15c160.75,-26.26 444.5,25.96 573.12,-28.15 35.26,-33.3 98.77,-447.05 -34.67,-494.86 -5.45,-1.96 -12.21,-5.32 -18.59,-7.1 -36.58,-10.22 -1048.18,-29.18 -1090.84,13.94 -39.78,87.74 -39.45,1892.42 -5.89,2047.73 158.9,33.67 942.92,25.91 1147.56,9.87 52.02,-122.78 91.56,-374.71 1.27,-492.93z"/>
    <path class="fil1" d="M5654.51 12966.37l-2.04 1040.66c-188.8,32.65 -253.37,-62.07 -278.8,158.52 -18.23,158.2 4.08,248.42 47.15,363.95l1063.85 -5.74c69.79,-142.97 68.57,-355.11 3.56,-503.16l-237.75 -8.15 -0.49 -1053.36c200.48,-12.52 244.68,55.54 271.8,-147.79 17.97,-134.66 7.81,-239.8 -41.98,-355.45 -185.06,-31.86 -749.03,-18.46 -962.55,-12.63 -137.42,3.75 -180.52,49.37 -152.73,343.84 24.1,255.26 84,137.11 289.98,179.31z"/>
    <path class="fil1" d="M9895.8 12945.68c75.31,-138.2 69.92,-351.94 1.99,-492.47 -170.59,-20.74 -957.65,-33.46 -1066.32,11.42 -58.27,84.75 -62.23,247.11 -41.65,368.98 31.25,184.98 99.01,103.84 283.82,129.76l-2.43 1049.01 -235.37 10.04c-58.83,147.21 -62.56,360.11 5.16,506.75l1063.75 -3.51c70.23,-144.15 65.01,-358.33 3.5,-505.21l-237.44 -10.83 -0.45 -1049.39 225.44 -14.55z"/>
    <path class="fil1" d="M8513.85 5829.25c69.56,-35.41 100.41,-81.34 157.82,-139.22 61.66,-62.15 95.3,-122.6 150.36,-102.3 150.43,-459.89 290.97,-813.14 755.53,-1099.12 904.43,-556.74 2050.63,-191.38 2459.38,764.39 277.03,647.78 97.33,993.97 -169.32,1483.71 88.22,17.6 64.47,36.5 127.44,-21.5 46.02,-42.38 77.77,-79.49 121.78,-123.25 67.3,-66.91 167.09,-195.24 255.93,-225.87 355.91,-1214.4 -578.57,-2252.51 -1591.57,-2402.17 -1242.57,-183.58 -2196.8,736.57 -2267.35,1865.33z"/>
    <path class="fil1" d="M5154.6 12975.06c56.24,-148.09 72.2,-367.96 -3.29,-522.94 -204.3,-20.72 -1222.89,-33.19 -1362.2,8.15 -71.54,137.97 -66.56,349.42 -3.98,517.98l391.39 14.27 3.48 1516.99c104.94,25.44 511.91,90.87 566.7,-23.04l27.78 -149.5c-0.16,-373.02 -18.65,-1044.92 1.91,-1351.4l378.21 -10.51z"/>
    <path class="fil1" d="M10032.71 9189.23c118.43,68.48 311.82,35.18 453.52,35.18 72.86,0 145.38,-0.16 218.23,1.01 117.12,1.87 145.7,20.62 230.69,-43.55 63.05,-23.18 185,-156.81 229.43,-215.32 -8.21,-6.67 16.33,43.43 -18.1,-18.34 -25.42,-45.58 -13.43,-19.45 -28.03,-67.76 -100.89,-27.25 -243.39,-209.54 -318.28,-284.64 -104.97,-105.29 -208.23,-205.04 -313.94,-309.87 -73.36,56.85 -651.22,632.12 -680.41,696.37 75.59,66.58 154.8,166.29 226.89,206.92z"/>
    <path class="fil1" d="M18025.28 6802.29c0,-237.58 184.12,-204.08 209.22,-71.34 16.25,85.83 2.64,365.8 2.64,471.23 256.83,0 565.28,-51.78 560.26,107.75 -5.32,168.73 -416.1,103.7 -557.49,103.66l-15.1 502.94c-69.37,81.9 -108.18,84.29 -181.21,21.01 -41.04,-118.77 -10.16,-378.79 -24.33,-523.91 -87.54,0 -421.63,10.42 -481.32,-8.28 -122.23,-38.27 -137.09,-203.17 93.12,-203.17l394.21 0 0 -399.89zm-139.33 254.13c-211.14,24.83 -572.64,-79.78 -566,254.19 6.27,315.56 322.33,200.95 566,254.91 0,208.85 -45.55,445.11 129.14,525.93 402.06,185.99 361.84,-375.1 361.84,-538.01 206.43,0 675.62,44.44 546.8,-346.96 -62.5,-189.9 -317.33,-143.65 -541.13,-143.65 -23.57,-255.99 50.5,-557.56 -243.77,-566.78 -307.32,-9.63 -252.88,296.17 -252.88,560.37z"/>
    <path class="fil2" d="M6766.65 7491.18c24.5,-179.49 -15.36,-389.97 34.3,-547.03 243.61,-47.4 185.1,88.09 185.1,548.53 180.57,0 435.52,-28.75 557.11,48.44 28.84,164.05 -26.26,163.74 -179.9,165.2 -124.62,1.19 -252.56,-11.04 -375.71,5.77 0,123.43 4.39,253.51 1.76,375.8 -3.83,177.23 -30.93,201.86 -188.36,171.23 -44.03,-139.26 -27.04,-384.43 -27.04,-554.3 -269.82,0 -564.08,52.96 -567.64,-104.43 -3.94,-174.17 415.49,-109.21 560.38,-109.21zm-135.83 -135.83c-212.08,0 -453.84,-42.43 -531.66,123.42 -63.05,134.4 -50.84,366.71 269.27,366.71l265.32 0c-0.37,195.27 -47.64,695.05 353.84,545.38 185.32,-69.08 135.8,-345.52 135.8,-542.93 176.99,-6.79 452.24,50.67 536.93,-116.43 62.82,-123.96 69.01,-376.15 -274.55,-376.15l-260.39 0c-1.55,-205.12 42.32,-704.75 -354.74,-539.81 -183.2,76.12 -131.68,327.56 -139.82,539.81z"/>
    <path class="fil2" d="M14198.55 6614.82c0,145.68 64.05,556.44 -105.08,566.39 -161.39,9.5 -108.57,-299.8 -108.57,-559.12 -181.23,-24.75 -386.59,10.75 -551.87,-29.46 -57.03,-252.64 139.35,-189.95 553.37,-189.95 0,-418.62 -62.5,-610.19 189.96,-553.39 40.21,165.3 4.72,370.64 29.46,551.88 259.8,0 568.23,-52.82 558.97,108.35 -9.76,169.87 -420.56,105.3 -566.24,105.3zm-349.47 -611.86l0 262.39c-222.31,0 -696.87,-49.87 -542.88,354.74 69.78,183.36 314.45,129.07 542.88,137.83 0,176.72 -54.51,455.74 120.66,533.53 411.37,182.66 369.47,-361.64 369.47,-535.97 203.53,0 676.08,48.87 541.58,-350.29 -64.93,-192.7 -315.46,-139.84 -539.15,-139.84 -7.96,-207.95 41.51,-459.2 -119.9,-535.26 -240.32,-113.23 -372.66,44.61 -372.66,272.87z"/>
    <path class="fil1" d="M2565.77 7601.63c0,-236.99 186.82,-203.28 210.27,-69.14 15.5,88.55 1.57,361.68 1.57,469.03 261.95,0 569.88,-52.39 564.91,107.74 -5.24,169.26 -419.72,103.71 -558.88,103.71 -30.05,307.65 64.16,582.7 -116.84,565.59 -173.48,-16.39 -94,-431.9 -107.06,-565.59 -87.19,0 -415.76,10.39 -475.61,-8.28 -127.47,-39.76 -135.37,-203.17 93.84,-203.17l387.8 0 0 -399.89zm-145.47 260.54c-227.28,0 -469.74,-51.37 -539.79,145.19 -138.32,388.13 349.13,345.41 545.46,345.41 0,181.04 -45.76,689.79 344.32,545.48 195.19,-72.2 146.67,-316.91 146.67,-533.39 245.31,-54.32 557.81,60.57 566.37,-255 8.49,-313.15 -309.52,-223.89 -566.37,-254.1 0,-264.68 54.76,-569.09 -252.96,-560.42 -293.95,8.28 -220.17,311.26 -243.7,566.83z"/>
    <path class="fil3" d="M4557.07 4912.95c0,-236.73 212.65,-256.99 212.65,0l-1.48 392.88 437.52 0c189.42,0 194.11,212.65 -24.22,212.65l-411.82 0c0,443.11 55.59,581.78 -177.49,560.29 -62.02,-127.37 -35.16,-408.4 -35.16,-560.29l-392.86 0c-253.96,0 -226.88,-212.65 0,-212.65l392.86 0 0 -392.88zm-123.67 -117.44l-3.07 382.83 -384.97 3.49c-179.43,30.23 -247.52,230.44 -145.56,382.09 99.62,148.15 332.39,65.83 519.14,105.27 0,167.94 -64.04,639.13 315.67,540.53 79.53,-20.65 147.31,-66.46 151.19,-155.15l6.26 -411.86 409.33 -9.8c213.39,-24.28 260.1,-409.59 -12.55,-442.54l-386.77 -19.82 -13.73 -403.95c-36.68,-218.71 -410.84,-228.96 -454.94,28.91z"/>
    <path class="fil3" d="M16275.08 9005.96c-72.93,47.11 -370.46,24.51 -460.22,24.51l-15.23 445.4c-0.82,-3.07 -6.28,9.9 -9.48,14.82 -22.7,47.2 -36.73,83.07 -97.53,85.65 -95.63,4.08 -78.19,-33.83 -94.56,-61.24 -71.08,-99.8 -31.47,-353.55 -31.47,-493.15 -131.07,0 -352.72,30.35 -450.6,-17.22 -71.65,-13.79 -99.52,-8.96 -98.6,-94.3 0.71,-65.53 24.25,-74.01 68.77,-96.42 104.27,-60.39 345.45,-25.4 486.84,-25.4 0,-113.09 -28.29,-392.06 24.55,-488.76 56.71,-100.55 168.82,-108.53 191.57,31.75 47.57,97.88 17.22,319.54 17.22,450.59 139.61,0 393.36,-39.6 493.15,31.48 23.4,13.97 78.11,28.42 58.92,110.12 -13.79,58.75 -38.72,60.72 -83.33,82.17zm-828.58 -343.85c-249.03,0 -571.52,-52.05 -566.16,247.01 5.48,306.42 305.27,225.95 566.16,248.06 0,241.24 -62.01,563.77 247.05,557.31 294.73,-6.16 242.74,-308.47 242.74,-562.58 253.86,0 557.39,52.48 562.67,-242.66 5.48,-306.61 -291.39,-247.14 -557.39,-247.14 -22.09,-260.65 56.73,-559.35 -248,-566.36 -299.28,-6.9 -247.07,318.35 -247.07,566.36z"/>
    <path class="fil0" d="M14198.55 6614.82c145.68,0 556.48,64.57 566.24,-105.3 9.26,-161.17 -299.17,-108.35 -558.97,-108.35 -24.74,-181.24 10.75,-386.58 -29.46,-551.88 -252.46,-56.8 -189.96,134.77 -189.96,553.39 -414.02,0 -610.4,-62.69 -553.37,189.95 165.28,40.21 370.64,4.71 551.87,29.46 0,259.32 -52.82,568.62 108.57,559.12 169.13,-9.95 105.08,-420.71 105.08,-566.39z"/>
    <path class="fil0" d="M6766.65 7491.18c-144.89,0 -564.32,-64.96 -560.38,109.21 3.56,157.39 297.82,104.43 567.64,104.43 0,169.87 -16.99,415.04 27.04,554.3 157.43,30.63 184.53,6 188.36,-171.23 2.63,-122.29 -1.76,-252.37 -1.76,-375.8 123.15,-16.81 251.09,-4.58 375.71,-5.77 153.64,-1.46 208.74,-1.15 179.9,-165.2 -121.59,-77.19 -376.54,-48.44 -557.11,-48.44 0,-460.44 58.51,-595.93 -185.1,-548.53 -49.66,157.06 -9.8,367.54 -34.3,547.03z"/>
    <path class="fil0" d="M2565.77 7601.63l0 399.89 -387.8 0c-229.21,0 -221.31,163.41 -93.84,203.17 59.85,18.67 388.42,8.28 475.61,8.28 13.06,133.69 -66.42,549.2 107.06,565.59 181,17.11 86.79,-257.94 116.84,-565.59 139.16,0 553.64,65.55 558.88,-103.71 4.97,-160.13 -302.96,-107.74 -564.91,-107.74 0,-107.35 13.93,-380.48 -1.57,-469.03 -23.45,-134.14 -210.27,-167.85 -210.27,69.14z"/>
    <path class="fil0" d="M4557.07 4912.95l0 392.88 -392.86 0c-226.88,0 -253.96,212.65 0,212.65l392.86 0c0,151.89 -26.86,432.92 35.16,560.29 233.08,21.49 177.49,-117.18 177.49,-560.29l411.82 0c218.33,0 213.64,-212.65 24.22,-212.65l-437.52 0 1.48 -392.88c0,-256.99 -212.65,-236.73 -212.65,0z"/>
    <path class="fil0" d="M18025.28 6802.29l0 399.89 -394.21 0c-230.21,0 -215.35,164.9 -93.12,203.17 59.69,18.7 393.78,8.28 481.32,8.28 14.17,145.12 -16.71,405.14 24.33,523.91 73.03,63.28 111.84,60.89 181.21,-21.01l15.1 -502.94c141.39,0.04 552.17,65.07 557.49,-103.66 5.02,-159.53 -303.43,-107.75 -560.26,-107.75 0,-105.43 13.61,-385.4 -2.64,-471.23 -25.1,-132.74 -209.22,-166.24 -209.22,71.34z"/>
    <path class="fil0" d="M15597.55 8299.85l-0.41 512.57 -510.98 1.59c-44.52,22.41 -68.06,30.89 -68.77,96.42 -0.92,85.34 26.95,80.51 98.6,94.3l476.04 6.22 6.03 504.15c16.37,27.41 -1.07,65.32 94.56,61.24 60.8,-2.58 74.83,-38.45 97.53,-85.65l0.77 -484.13 484.16 -0.6c44.61,-21.45 69.54,-23.42 83.33,-82.17 19.19,-81.7 -35.52,-96.15 -58.92,-110.12l-512.05 -5.29 1.68 -476.78c-22.75,-140.28 -134.86,-132.3 -191.57,-31.75z"/>
    <path class="fil1" d="M9588.89 9179.31c71.23,36.95 54.61,124.14 128.19,208.78 47.78,54.95 113.92,104.36 195.29,144.97 372.26,185.81 1037.18,173.14 1325.78,-137.74 144.27,-155.4 28.42,-164.85 142.58,-215.93l-195.34 -172.34c-32.97,47.57 -559.07,600.22 -660.25,622.85l-79.48 0.24c-111.97,-19.76 -268.89,-222.53 -350.93,-304.6 -87.6,-87.63 -247.12,-229.24 -309.39,-317.93 -82.14,35.13 -145.27,109.85 -196.45,171.7z"/>
    <path class="fil1" d="M8969.28 16645.62c-27.96,327.46 -82.55,737.39 306.15,730.04 349.71,-6.59 309.34,-370.12 277.46,-734.4l-222.96 1.68c-12.13,159.69 31.04,401.88 -24.54,526.94l-86.53 -15.32 -26.97 -514.68 -222.61 5.74z"/>
    <path class="fil0" d="M10834.34 13986.37c291.09,44.49 365.9,-210.77 374.11,-474.49 10.99,-353.11 -35.33,-485.53 -383.75,-504.35 -11.64,161.05 -21.47,852.15 9.64,978.84z"/>
    <path class="fil0" d="M14787.1 13016.74c-8.19,226.63 -1,461.37 -1.99,689.07 -0.23,54.2 -4.06,119.75 -2.68,171.75 2.06,78.28 -4.25,92.23 46.95,111.86 178.55,68.48 404.34,-201.4 333.24,-694.88 -30.66,-212.82 -136.05,-304.67 -375.52,-277.8z"/>
    <path class="fil1" d="M11498.17 17151.25c68.47,-177.41 295.33,-319.64 181.78,-496.84 -93.89,-37.34 -362.93,-36.29 -461.46,1.75l12.17 153.82c68.69,29.29 111.75,18.85 204.16,18.85 -64.13,156.82 -358.62,412.35 -149.25,535.5l405.56 -7.31c25.14,-93.38 35.78,-93.15 2.09,-198.72l-195.05 -7.05z"/>
    <path class="fil1" d="M11013 17205.28l-203.72 -19.75c-16.34,-134.83 -2.75,-78.19 26.41,-108.62l130.46 -8.67 1.12 -116.78c-129.13,-98.63 -138.89,71.86 -149.87,-127.12 71.75,0 158.51,16.81 198,-24.44 30.11,-31.47 33.28,-121.19 -7.95,-149.36 -45.61,-31.18 -324.54,-14.59 -398.58,-11.06l5.23 717c77.04,8.76 235.15,14.65 311.64,9.59 94.95,-6.28 86.66,21.49 109.57,-59.65 17.79,-63.05 -4.6,-77.52 -22.31,-101.14z"/>
    <path class="fil1" d="M8513.84 5877.98c-0.32,219.41 27.94,349.66 91.15,524.7 4.22,-3.15 11.72,-6.41 14.31,-6.7 2.41,-0.27 11.09,-4.46 14.03,-4.34 2.75,0.12 10.78,-0.4 13.78,0.32 3.19,0.77 10.39,3.85 13.63,5.39 3.54,1.66 9.39,7.11 12.87,9.52l361.18 357.05 50.68 -38.14c-73.09,-169.83 -171.41,-274.4 -237.31,-490.78 -59.89,-196.66 -56.11,-398.64 -28.6,-617.28 -117.7,71.43 -178.58,212.32 -305.72,260.26z"/>
    <path class="fil1" d="M10227.43 16854.58c131.83,-112.49 222.46,98.32 203.47,-212.75l-412.53 -4.9 0.18 735.09 208.45 -8.2 -1.49 -253.57 147.18 -37.96 -12.47 -120.83c-118.23,-58.47 -120.82,47.23 -132.79,-96.88z"/>
    <path class="fil1" d="M8834.23 16803.05l-8.13 -147.76c-114.67,-45.45 -344.93,-23 -497.67,-15.87l6.7 166.71 140.21 48.45 3.14 511.66 209.53 -11.69 1.81 -519.8 144.41 -31.7z"/>
    <path class="fil4" d="M10445.66 9630.14l79.48 -0.24c94.51,-151 341.38,-306.5 410.01,-448.03 -84.99,64.17 -113.57,45.42 -230.69,43.55 -72.85,-1.17 -145.37,-1.01 -218.23,-1.01 -141.7,0 -335.09,33.3 -453.52,-35.18l412.95 440.91z"/>
    <path class="fil5" d="M9421.77 8593.87l-25.9 18.78c70.57,99.65 303.08,273.91 321.89,367.39 -49.41,83.08 -121.47,97.12 -161.32,200.47l32.45 -1.2c51.18,-61.85 114.31,-136.57 196.45,-171.7 62.27,88.69 221.79,230.3 309.39,317.93 82.04,82.07 238.96,284.84 350.93,304.6l-412.95 -440.91c-72.09,-40.63 -151.3,-140.34 -226.89,-206.92 29.19,-64.25 607.05,-639.52 680.41,-696.37 105.71,104.83 208.97,204.58 313.94,309.87 74.89,75.1 217.39,257.39 318.28,284.64 -38.79,-111.19 -489.05,-485.42 -596.03,-624.81 87.02,-126.56 152.35,-117.03 215.94,-258.87 -127.74,69.42 -150.96,138.63 -252.13,211.52 -103.69,-68.61 -123.69,-134.25 -254.14,-212.08 36.02,81.31 52.34,89.75 118.74,154.16 38.05,36.91 65.1,56.82 87.08,101.47 3.43,46.25 -562.14,552.84 -653.66,683.29 -107.06,-62.06 -274.85,-256.54 -362.48,-341.26z"/>
    <path class="fil1" d="M12144.21 16852.74c13.9,88.03 -144.21,125.31 -151.71,289.5 219.91,53.63 167.37,-3.11 243.14,-112.21 49.49,-71.23 136.85,-105.79 138.02,-224.46 2.34,-238.43 -316.39,-198.22 -457.59,-126.82 -21.06,316.1 202.72,13.17 228.14,173.99z"/>
    <path class="fil1" d="M9556.44 9180.51c39.85,-103.35 111.91,-117.39 161.32,-200.47 -18.81,-93.48 -251.32,-267.74 -321.89,-367.39 -154.63,93.52 -48.99,186.7 26.62,276.56 -167.94,90.44 -141.58,285.51 133.95,291.3z"/>
    <path class="fil1" d="M11419.03 9181.34c236.86,-6.98 295.29,-149.75 131.81,-295.92 58.99,-68.89 169.89,-164.56 20.4,-269.45 -72.84,96.43 -299,276.61 -320.05,366.82 55.2,81.73 112.37,86.18 167.84,198.55z"/>
    <path class="fil0" d="M12800.55 13687.23l297.07 -2.38 -128.45 -600.56c-59.38,119.49 -140.56,451.88 -168.62,602.94z"/>
    <polygon class="fil0" points="2457.79,13686.32 2759.49,13686.22 2629.63,13081.54 "/>
    <path class="fil5" d="M11118.45 8880.45c14.6,48.31 2.61,22.18 28.03,67.76 34.43,61.77 9.89,11.67 18.1,18.34 -44.43,58.51 -166.38,192.14 -229.43,215.32 -68.63,141.53 -315.5,297.03 -410.01,448.03 101.18,-22.63 627.28,-575.28 660.25,-622.85l195.34 172.34 38.3 1.95c-55.47,-112.37 -112.64,-116.82 -167.84,-198.55 21.05,-90.21 247.21,-270.39 320.05,-366.82 -86.76,9.99 -50.47,1.3 -109.16,58.41l-293.65 230.37c-24.23,-12.51 -15.64,-10.02 -49.98,-24.3z"/>
    <path class="fil5" d="M11867.62 6736.71l3.23 14.87 29.76 48.42c-59.08,66.49 -92.02,114.81 -179.53,171.74 -39.35,17.12 -69,71.74 -104.81,123.15l42.74 6.13c64.02,-24.41 194.35,-216.44 280.38,-255.92 73,28.72 39.17,38.25 127.2,92.01 -31.68,-99.96 -24.83,-68.55 -90.72,-134.82 36.24,-56.4 315.75,-333.85 377.61,-387.14l19.29 -49.06c-88.84,30.63 -188.63,158.96 -255.93,225.87 -44.01,43.76 -75.76,80.87 -121.78,123.25 -62.97,58 -39.22,39.1 -127.44,21.5z"/>
    <path class="fil5" d="M8612.06 6419.04c127.53,93.89 289.2,283.37 388.96,392.93l327.33 260.99c-32.26,-52.69 -64.62,-106.26 -102.01,-125.45 -76.98,-49.17 -105.91,-83.43 -150.87,-145.22l17.75 -41.68 -7.75 -34.83 -50.68 38.14 -361.18 -357.05c-3.48,-2.41 -9.33,-7.86 -12.87,-9.52 -3.24,-1.54 -10.44,-4.62 -13.63,-5.39 -3,-0.72 -11.03,-0.2 -13.78,-0.32 -2.94,-0.12 -11.62,4.07 -14.03,4.34 -2.59,0.29 -10.09,3.55 -14.31,6.7l7.07 16.36z"/>
    <polygon class="fil6" points="12023.18,17376.63 12174.86,17374.22 12179.59,17195.56 12002.27,17195.93 "/>
    <path class="fil7" d="M15086.16 8814.01l510.98 -1.59 0.41 -512.57c-52.84,96.7 -24.55,375.67 -24.55,488.76 -141.39,0 -382.57,-34.99 -486.84,25.4z"/>
    <path class="fil8" d="M16299.49 8813.67c-99.79,-71.08 -353.54,-31.48 -493.15,-31.48 0,-131.05 30.35,-352.71 -17.22,-450.59l-1.68 476.78 512.05 5.29z"/>
    <path class="fil9" d="M17291.17 14031.43c-86.52,-74.11 -427.14,-37.41 -563.82,-37.48l16.1 -286.33c-26.77,13.67 -40.71,-17.84 -40.28,142.73 0.18,68.63 0.26,95.64 15.83,161.69l572.17 19.39z"/>
    <path class="fil8" d="M15598.06 9515.1l-6.03 -504.15 -476.04 -6.22c97.88,47.57 319.53,17.22 450.6,17.22 0,139.6 -39.61,393.35 31.47,493.15z"/>
    <path class="fil10" d="M4885.8 6054.57c55.12,-87.45 29.69,-285.06 29.69,-390.33l317.53 0c117.72,-12.5 35.79,-6.05 68.37,-31.33l-409.33 9.8 -6.26 411.86z"/>
    <path class="fil11" d="M15790.15 9490.69c3.2,-4.92 8.66,-17.89 9.48,-14.82l15.23 -445.4c89.76,0 387.29,22.6 460.22,-24.51l-484.16 0.6 -0.77 484.13z"/>
    <path class="fil12" d="M4045.36 5181.83l384.97 -3.49 3.07 -382.83 -30.63 68.02 3.41 291.4c-110.89,0 -282.84,-23.23 -360.82,26.9z"/>
    <path class="fil5" d="M8513.85 5829.25l-0.01 48.73c127.14,-47.94 188.02,-188.83 305.72,-260.26l2.47 -29.99c-55.06,-20.3 -88.7,40.15 -150.36,102.3 -57.41,57.88 -88.26,103.81 -157.82,139.22z"/>
    <path class="fil8" d="M5288.84 5190.37c-23.02,-28.97 40.23,-16.13 -58.85,-30.78l-308.84 0c-0.47,-110.12 27.92,-302.05 -32.81,-392.99l13.73 403.95 386.77 19.82z"/>
    <path class="fil13" d="M11721.08 6971.74c87.51,-56.93 120.45,-105.25 179.53,-171.74l-29.76 -48.42c-44.94,37.3 -43.04,37.53 -81.99,92.97 -51.88,73.87 -37.28,45.65 -67.78,127.19z"/>
    <path class="fil13" d="M9226.34 6947.51c-29.19,-78.76 -61.74,-142.32 -133.12,-186.9l-17.75 41.68c44.96,61.79 73.89,96.05 150.87,145.22z"/>
    <path class="fil14" d="M11013 17205.28c-32.26,-36.53 42.64,-28.55 -42.32,-30.87l-146.86 -0.2 11.87 -97.3c-29.16,30.43 -42.75,-26.21 -26.41,108.62l203.72 19.75z"/>
   </g>
  </g>
 </g>
</svg>
